<svg width="33" height="65" viewBox="0 0 33 65" fill="none" xmlns="http://www.w3.org/2000/svg">
<line x1="0.5" y1="53" x2="0.499998" y2="2.18557e-08" stroke="#C6C6C6"/>
<line x1="1" y1="52.5" x2="12" y2="52.5" stroke="#C6C6C6"/>
<path d="M24.5556 45H14.7778C13.8 45 13 45.8 13 46.7778V59.2222C13 60.2 13.8 61 14.7778 61H27.2222C28.2 61 29 60.2 29 59.2222V49.4444L24.5556 45ZM16.5556 48.5556H21V50.3333H16.5556V48.5556ZM25.4444 57.4444H16.5556V55.6667H25.4444V57.4444ZM25.4444 53.8889H16.5556V52.1111H25.4444V53.8889ZM23.6667 50.3333V46.7778L27.2222 50.3333H23.6667Z" fill="#7890B2"/>
</svg>
